<svg xmlns="http://www.w3.org/2000/svg" width="256" height="256" viewBox="0 0 100 100"><rect width="100" height="100" rx="20" fill="#1d4ed8"></rect><path fill="#fff" d="M38.41 49.41L38.41 49.41Q38.41 44.04 36.77 40.21Q35.13 36.39 32.32 33.96Q29.50 31.52 25.77 30.39Q22.03 29.25 17.74 29.25L17.74 29.25Q15.06 29.25 13.08 29.42Q11.11 29.59 9.43 29.92L9.43 29.92L9.43 69.91Q11.44 70.41 13.75 70.58Q16.06 70.75 18.50 70.75L18.50 70.75Q28.41 70.75 33.41 65.37Q38.41 60.00 38.41 49.41ZM45.38 49.41L45.38 49.41Q45.38 56.30 43.49 61.38Q41.60 66.46 38.11 69.82Q34.63 73.18 29.67 74.82Q24.72 76.46 18.58 76.46L18.58 76.46Q15.90 76.46 12.54 76.25Q9.18 76.04 6.15 75.12L6.15 75.12Q2.62 74.02 2.62 71.25L2.62 71.25L2.62 28.08Q2.62 26.73 3.30 26.02Q3.97 25.30 5.40 24.88L5.40 24.88Q8.00 24.04 11.28 23.79Q14.55 23.54 17.83 23.54L17.83 23.54Q23.96 23.54 29.04 25.18Q34.12 26.82 37.74 30.05Q41.35 33.28 43.36 38.11Q45.38 42.94 45.38 49.41ZM97.38 75.37L97.38 75.37Q96.87 75.54 96.03 75.75Q95.19 75.96 94.18 75.96L94.18 75.96Q90.49 75.96 90.49 72.85L90.49 72.85L90.49 52.52L64.28 52.52L64.28 75.37Q63.78 75.54 62.94 75.75Q62.10 75.96 61.09 75.96L61.09 75.96Q57.39 75.96 57.39 72.85L57.39 72.85L57.39 24.63Q57.81 24.46 58.69 24.25Q59.58 24.04 60.58 24.04L60.58 24.04Q64.28 24.04 64.28 27.15L64.28 27.15L64.28 46.81L90.49 46.81L90.49 24.63Q90.91 24.46 91.79 24.25Q92.67 24.04 93.68 24.04L93.68 24.04Q97.38 24.04 97.38 27.15L97.38 27.15L97.38 75.37Z"></path></svg>